<svg width="28" height="26" viewBox="0 0 28 26" fill="none" xmlns="http://www.w3.org/2000/svg">
<path d="M22.331 20.8C20.8325 20.8 19.631 21.957 19.631 23.4C19.631 24.0896 19.9154 24.7509 20.4218 25.2385C20.9281 25.7261 21.6149 26 22.331 26C23.047 26 23.7338 25.7261 24.2401 25.2385C24.7465 24.7509 25.031 24.0896 25.031 23.4C25.031 22.7104 24.7465 22.0491 24.2401 21.5615C23.7338 21.0739 23.047 20.8 22.331 20.8ZM0.730957 0V2.6H3.43096L8.29096 12.467L6.45496 15.652C6.25246 16.016 6.13096 16.445 6.13096 16.9C6.13096 17.5896 6.41542 18.2509 6.92177 18.7385C7.42812 19.2261 8.11487 19.5 8.83096 19.5H25.031V16.9H9.39796C9.30845 16.9 9.2226 16.8658 9.15931 16.8048C9.09601 16.7439 9.06046 16.6612 9.06046 16.575C9.06046 16.51 9.07396 16.458 9.10096 16.419L10.316 14.3H20.3735C21.386 14.3 22.277 13.754 22.736 12.961L27.569 4.55C27.6635 4.342 27.731 4.121 27.731 3.9C27.731 3.55522 27.5887 3.22456 27.3356 2.98076C27.0824 2.73696 26.739 2.6 26.381 2.6H6.41446L5.14546 0M8.83096 20.8C7.33246 20.8 6.13096 21.957 6.13096 23.4C6.13096 24.0896 6.41542 24.7509 6.92177 25.2385C7.42812 25.7261 8.11487 26 8.83096 26C9.54704 26 10.2338 25.7261 10.7401 25.2385C11.2465 24.7509 11.531 24.0896 11.531 23.4C11.531 22.7104 11.2465 22.0491 10.7401 21.5615C10.2338 21.0739 9.54704 20.8 8.83096 20.8Z" fill="#3088C8"/>
</svg>
