<svg width="25" height="26" viewBox="0 0 25 26" fill="none" xmlns="http://www.w3.org/2000/svg">
<path d="M12.5373 0.451172C10.0851 0.451172 7.73324 1.42533 5.99923 3.15934C4.26522 4.89335 3.29107 7.24517 3.29107 9.69744V14.3576C3.29126 14.5625 3.24377 14.7646 3.15237 14.948L0.884396 19.4826C0.773608 19.7042 0.721295 19.9503 0.732425 20.1978C0.743555 20.4452 0.81776 20.6857 0.94799 20.8964C1.07822 21.1071 1.26015 21.281 1.47651 21.4016C1.69286 21.5222 1.93646 21.5855 2.18416 21.5855H22.8905C23.1382 21.5855 23.3818 21.5222 23.5982 21.4016C23.8145 21.281 23.9964 21.1071 24.1267 20.8964C24.2569 20.6857 24.3311 20.4452 24.3422 20.1978C24.3534 19.9503 24.3011 19.7042 24.1903 19.4826L21.9236 14.948C21.8318 14.7647 21.7838 14.5626 21.7836 14.3576V9.69744C21.7836 7.24517 20.8094 4.89335 19.0754 3.15934C17.3414 1.42533 14.9896 0.451172 12.5373 0.451172ZM12.5373 25.5482C11.7175 25.5486 10.9177 25.2948 10.2482 24.8216C9.57874 24.3485 9.07247 23.6793 8.7992 22.9064H16.2755C16.0022 23.6793 15.4959 24.3485 14.8264 24.8216C14.1569 25.2948 13.3571 25.5486 12.5373 25.5482Z" fill="#3088C8"/>
</svg>
