<svg width="25" height="24" viewBox="0 0 25 24" fill="none" xmlns="http://www.w3.org/2000/svg">
<path fill-rule="evenodd" clip-rule="evenodd" d="M7.01042 5.33333C7.01042 3.91885 7.57232 2.56229 8.57251 1.5621C9.57271 0.561903 10.9293 0 12.3438 0C13.7582 0 15.1148 0.561903 16.115 1.5621C17.1152 2.56229 17.6771 3.91885 17.6771 5.33333C17.6771 6.74782 17.1152 8.10438 16.115 9.10457C15.1148 10.1048 13.7582 10.6667 12.3438 10.6667C10.9293 10.6667 9.57271 10.1048 8.57251 9.10457C7.57232 8.10438 7.01042 6.74782 7.01042 5.33333ZM7.01042 13.3333C5.24231 13.3333 3.54661 14.0357 2.29637 15.286C1.04613 16.5362 0.34375 18.2319 0.34375 20C0.34375 21.0609 0.765177 22.0783 1.51532 22.8284C2.26547 23.5786 3.28288 24 4.34375 24H20.3438C21.4046 24 22.422 23.5786 23.1722 22.8284C23.9223 22.0783 24.3438 21.0609 24.3438 20C24.3438 18.2319 23.6414 16.5362 22.3911 15.286C21.1409 14.0357 19.4452 13.3333 17.6771 13.3333H7.01042Z" fill="#3088C8"/>
</svg>
