<svg width="170" height="104" viewBox="0 0 170 104" fill="none" xmlns="http://www.w3.org/2000/svg">
<g clip-path="url(#clip0_150_5119)">
<path d="M48.943 57.2655C48.943 65.295 46.8047 71.4967 42.5279 75.8706C38.2511 80.2445 32.2243 82.4311 24.4475 82.4304C21.4019 82.4304 18.8098 82.0059 16.6711 81.1571V92.908C16.6711 96.6944 14.889 98.5223 11.3248 98.3915H9.18638C5.88149 98.3915 3.54859 97.8205 2.18766 96.6785C0.826748 95.5365 0.146353 93.4965 0.146484 90.5585V43.5559C0.146484 41.9238 0.470434 40.553 1.11834 39.4433C1.76623 38.3338 2.83551 37.2567 4.32613 36.2121C6.33496 34.8409 8.84615 33.7799 11.8597 33.0294C15.1236 32.2497 18.4692 31.8715 21.8234 31.9032C30.3126 31.9032 36.7931 33.9595 41.2646 38.072C46.3837 42.5769 48.9432 48.9747 48.943 57.2655ZM22.4059 44.9272C20.3724 44.9335 18.371 45.438 16.574 46.397V67.9388C18.5829 68.8527 20.3974 69.3096 22.0176 69.3096C28.6921 69.3096 32.0295 65.295 32.0298 57.2655C32.0298 49.0396 28.8215 44.9269 22.4059 44.9272Z" fill="white"/>
<path d="M66.8452 81.5571C65.8296 82.2828 64.5677 82.6129 63.0597 82.547H60.8985C57.5564 82.547 55.181 81.953 53.7723 80.7649C52.3637 79.5767 51.6592 77.5304 51.6589 74.6258V38.8811C51.6589 36.6366 52.1505 35.1512 53.1335 34.4249C54.1166 33.6988 55.3943 33.3358 56.967 33.3359L59.1292 33.4347C62.4713 33.4347 64.8467 34.0287 66.2554 35.2166C67.664 36.4047 68.3685 38.4512 68.3688 41.356V77.1005C68.3688 79.3453 67.8609 80.8308 66.8452 81.5571Z" fill="white"/>
<path d="M70.9401 80.0235L72.0065 79.3625C74.3032 77.8198 75.4515 75.2581 75.4514 71.6777V37.9635C75.4514 36.0904 75.8615 34.8508 76.682 34.2448C77.5023 33.6387 78.5687 33.3358 79.8812 33.3359L81.6855 33.4185C84.4746 33.4185 86.457 33.9143 87.6326 34.9057C88.8083 35.8971 89.3962 37.6049 89.3963 40.0291V72.9997C89.3963 77.627 88.3436 81.3456 86.2385 84.1552C84.1333 86.9649 81.2762 88.3694 77.6673 88.369C76.1394 88.3995 74.6337 87.9989 73.32 87.2124C72.0779 86.4593 71.1022 85.3319 70.5308 83.9897C70.2265 83.3722 70.0586 82.6957 70.0388 82.0065C70.0382 81.125 70.3386 80.464 70.9401 80.0235Z" fill="white"/>
<path d="M134.34 50.0347V70.475C134.374 71.7566 134.01 73.0171 133.297 74.0797C132.603 75.0834 131.471 76.0415 129.901 76.9538C126.037 79.3265 120.511 80.5128 113.324 80.5128C106.621 80.5128 101.443 79.2505 97.7906 76.7258C94.1379 74.201 92.3108 70.5054 92.3093 65.6387C92.3093 61.4416 93.5473 58.2173 96.0232 55.9662C98.499 53.7152 102.334 52.3159 107.527 51.7686L119.393 50.4912V49.8525C119.393 46.5675 116.404 44.9248 110.426 44.9247C107.829 44.9247 104.84 45.3506 101.458 46.2023C100.25 46.5065 99.3747 46.6586 98.8313 46.6585C98.2733 46.6776 97.7202 46.5484 97.2273 46.2842C96.7345 46.02 96.3192 45.6299 96.0232 45.1531C95.3588 44.1492 95.0267 42.9172 95.0267 41.4573C95.0267 39.876 95.3739 38.6287 96.0683 37.716C96.7628 36.8034 97.9554 35.9821 99.6462 35.2524C102.786 33.9747 107.104 33.3359 112.6 33.3359C119.605 33.3359 124.979 34.7502 128.723 37.579C132.467 40.4077 134.34 44.5596 134.34 50.0347ZM119.484 68.0118V60.7114L112.962 61.2588C109.097 61.5022 107.165 62.7799 107.165 65.0919C107.165 67.8292 109.218 69.1979 113.324 69.198C114.523 69.1987 115.721 69.0918 116.901 68.8787C118.08 68.6654 118.941 68.3764 119.484 68.0118Z" fill="white"/>
<path d="M151.946 81.5622C150.843 82.3081 149.525 82.6652 148.199 82.578L146.279 82.4813C143.014 82.4813 140.693 81.9009 139.316 80.7402C137.94 79.5795 137.251 77.58 137.252 74.7418V45.719C137.252 43.1389 138.18 41.043 140.037 39.431C141.893 37.8189 144.902 36.3353 149.064 34.9803C152.618 33.9172 156.304 33.3635 160.012 33.3359C166.671 33.3358 170 35.8834 170 40.9788C170 41.7527 169.968 42.204 169.904 42.3329C169.648 44.5902 167.919 45.8802 164.718 46.2027C162.636 46.4018 160.568 46.7251 158.524 47.1708C156.444 47.6224 154.795 48.106 153.579 48.6217V77.1597C153.579 79.3532 153.034 80.8208 151.946 81.5622Z" fill="white"/>
<path d="M75.3554 1.17338V12.1211C73.7753 12.8852 72.2564 13.7712 70.8119 14.7712C65.0736 9.84747 60.0139 10.1942 60.0139 10.1942C66.0631 0.719929 75.3554 1.17338 75.3554 1.17338Z" fill="white"/>
<path d="M70.8119 14.7717C61.2482 21.4092 60.027 30.0734 60.027 30.0734L60.0139 10.1947C60.0139 10.1947 65.0736 9.84798 70.8119 14.7717Z" fill="white"/>
<path d="M44.6721 1.17338V12.1211C46.2522 12.8852 47.7711 13.7712 49.2156 14.7712C54.954 9.84747 60.0139 10.1942 60.0139 10.1942C53.9644 0.719929 44.6721 1.17338 44.6721 1.17338Z" fill="white"/>
<path d="M49.2156 14.7717C58.7793 21.4092 60.0004 30.0734 60.0004 30.0734L60.0139 10.1947C60.0139 10.1947 54.9539 9.84798 49.2156 14.7717Z" fill="white"/>
<path d="M23.0767 95.252C23.0705 95.0452 23.0807 94.8382 23.1069 94.633C23.135 94.5091 23.179 94.3896 23.2379 94.2773C23.3589 94.0878 23.6881 93.9931 24.2255 93.9931C24.3901 93.9788 24.5559 93.9975 24.7132 94.048C24.8707 94.0985 25.0166 94.1799 25.1427 94.2874C25.3601 94.5386 25.4849 94.8578 25.4957 95.1909C25.5843 94.9891 25.7145 94.8086 25.8779 94.6616C26.0412 94.5144 26.2338 94.4042 26.4429 94.338C26.9911 94.1375 27.5716 94.0411 28.1547 94.0536C28.5696 94.0399 28.9834 94.1055 29.3741 94.2468C29.7349 94.407 30.0604 94.6381 30.3314 94.9268C30.6595 95.262 30.9135 95.6634 31.0767 96.1044C31.1536 95.7093 31.3549 95.3497 31.6508 95.0789C32.0138 94.7251 32.4416 94.4459 32.9106 94.2568C33.3613 94.0817 33.8385 93.9856 34.3214 93.9727C35.3826 93.9727 36.1954 94.3888 36.7599 95.2212C37.3244 96.0536 37.6072 97.2617 37.6084 98.8456V102.399C37.6225 102.679 37.5954 102.959 37.5276 103.231C37.5009 103.311 37.4561 103.384 37.3967 103.444C37.3372 103.504 37.2647 103.549 37.185 103.576C36.9091 103.65 36.6241 103.684 36.3387 103.678C36.053 103.688 35.7676 103.654 35.4923 103.576C35.4161 103.553 35.3469 103.511 35.2905 103.454C35.2342 103.398 35.1927 103.328 35.1697 103.251C35.1027 102.965 35.0756 102.672 35.089 102.378V98.8252C35.089 98.1082 34.9378 97.5499 34.6355 97.1505C34.4832 96.9521 34.2854 96.7938 34.0589 96.6896C33.8325 96.5852 33.5842 96.5379 33.3356 96.5515C32.3811 96.5515 31.8303 97.0726 31.6832 98.1148L31.6227 102.399L31.6424 102.947C31.6424 103.258 31.5617 103.458 31.4004 103.546C31.1248 103.654 30.8287 103.699 30.5338 103.678C30.2547 103.691 29.9752 103.657 29.7075 103.576C29.6361 103.552 29.5723 103.509 29.5228 103.452C29.4731 103.395 29.4396 103.326 29.4255 103.251C29.3874 102.962 29.3672 102.67 29.3649 102.378L29.2842 98.8252C29.2712 98.0133 29.1267 97.4312 28.8509 97.0795C28.5752 96.7276 28.1352 96.5516 27.531 96.5515C27.2695 96.544 27.0097 96.5957 26.7707 96.7029C26.5317 96.81 26.3198 96.97 26.1504 97.1707C25.776 97.6371 25.5859 98.2264 25.6163 98.8252V102.419C25.63 102.692 25.6027 102.966 25.5357 103.231C25.5089 103.311 25.4641 103.384 25.4047 103.444C25.3452 103.504 25.2729 103.549 25.1933 103.576C24.6233 103.712 24.0299 103.712 23.4599 103.576C23.3794 103.555 23.3063 103.511 23.2492 103.45C23.1922 103.389 23.1533 103.313 23.1373 103.231C23.0877 102.957 23.0675 102.677 23.077 102.399L23.0767 95.252Z" fill="white"/>
<path d="M47.4424 93.8304C47.5445 93.8224 47.6472 93.8353 47.7442 93.8685C47.8413 93.9017 47.9305 93.9544 48.0067 94.0234C48.0858 94.0924 48.1486 94.1784 48.1904 94.275C48.2323 94.3715 48.2521 94.4763 48.2485 94.5816V102.398C48.2547 102.605 48.2446 102.812 48.2183 103.017C48.1901 103.141 48.1461 103.261 48.0873 103.373C48.0469 103.454 47.9192 103.522 47.7044 103.576C47.4204 103.642 47.1289 103.669 46.8378 103.657C46.0447 103.657 45.6483 103.373 45.6487 102.804L45.6683 102.602C45.2114 103.292 44.2912 103.637 42.9073 103.637C42.1661 103.628 41.4453 103.39 40.8416 102.957C40.1711 102.497 39.6213 101.881 39.2394 101.16C38.8318 100.454 38.6162 99.6531 38.6145 98.8368C38.6128 98.0205 38.8248 97.2182 39.2294 96.5109C39.6203 95.7874 40.1764 95.168 40.8518 94.7038C41.449 94.2639 42.1676 94.0228 42.9073 94.0136C43.4726 94.0138 44.0305 94.142 44.5397 94.389C45.0182 94.6014 45.4297 94.9419 45.7289 95.3737V94.6229C45.7266 94.5353 45.7413 94.448 45.7726 94.3662C45.8037 94.2844 45.8504 94.2095 45.9104 94.1457C46.0332 94.0162 46.1972 93.9335 46.3739 93.9122L47.4424 93.8304ZM41.4467 99.941C41.6518 100.29 41.939 100.583 42.2831 100.794C42.6262 101.013 43.0256 101.126 43.4318 101.119C43.7253 101.121 44.0163 101.063 44.2867 100.948C44.557 100.832 44.8011 100.663 45.0039 100.449C45.2175 100.241 45.3868 99.9918 45.5011 99.7161C45.6155 99.4401 45.6725 99.1437 45.6687 98.8447C45.6739 98.5426 45.6175 98.2427 45.5031 97.9633C45.3888 97.684 45.2188 97.4312 45.0039 97.2206C44.7979 97.0052 44.5504 96.8347 44.2766 96.7195C44.0027 96.6042 43.7083 96.5468 43.4115 96.5506C43.1123 96.5497 42.8158 96.6084 42.5391 96.7235C42.2624 96.8384 42.011 97.0074 41.7994 97.2206C41.5878 97.4338 41.42 97.687 41.3059 97.9658C41.1918 98.2445 41.1334 98.5432 41.1343 98.8447C41.1364 99.2321 41.2445 99.6115 41.4467 99.941Z" fill="white"/>
<path d="M49.2562 90.257C49.2506 90.0535 49.2608 89.8498 49.2866 89.648C49.3149 89.5147 49.359 89.3853 49.4176 89.2623H49.398C49.4932 89.1559 49.6208 89.0846 49.7608 89.0592C50.013 89.0119 50.2693 88.9915 50.5258 88.9984C50.7756 88.9919 51.0255 89.0123 51.2711 89.0592C51.4042 89.0876 51.5244 89.1588 51.6138 89.2623V89.2821C51.6724 89.3945 51.7164 89.514 51.7447 89.6378C51.7711 89.8498 51.7813 90.0638 51.7749 90.2776V94.8655C52.1475 94.5776 52.577 94.3734 53.0345 94.2667C53.5558 94.1163 54.0951 94.0378 54.6374 94.0331C55.3888 94.0291 56.1247 94.248 56.7534 94.6627C57.4064 95.0914 57.9349 95.6869 58.2851 96.3884C58.6554 97.1529 58.8419 97.9944 58.8294 98.8449V102.418C58.843 102.691 58.8157 102.965 58.7487 103.23C58.7282 103.311 58.6879 103.384 58.6315 103.445C58.5751 103.505 58.5044 103.55 58.4261 103.575C58.1435 103.65 57.8517 103.684 57.5595 103.677C57.2724 103.691 56.9851 103.65 56.7132 103.555C56.6373 103.526 56.5688 103.479 56.5131 103.419C56.4572 103.36 56.4154 103.288 56.3906 103.21C56.3229 102.938 56.2956 102.658 56.31 102.378V98.8245C56.3359 98.2187 56.1222 97.6272 55.7155 97.1801C55.517 96.9716 55.2772 96.8078 55.0115 96.6994C54.7458 96.5909 54.4604 96.5403 54.1739 96.5507C53.5922 96.5473 53.0269 96.7444 52.5717 97.1092C52.3539 97.2623 52.1705 97.4598 52.0334 97.6888C51.8963 97.9179 51.8084 98.1734 51.7755 98.4389V102.418C51.7892 102.691 51.762 102.965 51.6949 103.23C51.6744 103.31 51.6342 103.384 51.5778 103.445C51.5214 103.505 51.4507 103.55 51.3725 103.575C51.0897 103.65 50.7979 103.684 50.5057 103.677C50.2202 103.687 49.9347 103.653 49.6594 103.575C49.5835 103.546 49.515 103.499 49.4592 103.44C49.4034 103.38 49.3616 103.308 49.3368 103.23C49.2691 102.958 49.2418 102.678 49.2562 102.398V90.257Z" fill="white"/>
<path d="M60.2599 91.4563C60.1781 91.4338 60.1034 91.3901 60.0433 91.3297C59.9832 91.2691 59.9398 91.194 59.9173 91.1114C59.8452 90.8333 59.8181 90.5452 59.8368 90.2584C59.8222 89.9712 59.8527 89.6835 59.9273 89.4058C59.9537 89.3291 59.9977 89.2597 60.0555 89.2034C60.1135 89.1469 60.1838 89.105 60.2607 89.0811C60.5368 89.0085 60.8225 88.9811 61.1072 88.9998C61.3927 88.9935 61.6777 89.0277 61.9539 89.1013C62.0297 89.1312 62.0979 89.1776 62.1537 89.2373C62.2094 89.297 62.2512 89.3684 62.2761 89.4465C62.3438 89.7185 62.371 89.999 62.3567 90.2789C62.3753 90.5656 62.3482 90.8535 62.2761 91.1316C62.253 91.2082 62.2115 91.2778 62.1552 91.3346C62.0991 91.3912 62.0299 91.433 61.9539 91.4563C61.3946 91.5647 60.8192 91.5647 60.2599 91.4563ZM59.8368 95.2733C59.8222 94.986 59.8527 94.6981 59.9273 94.4205C59.9537 94.3437 59.9977 94.2743 60.0555 94.218C60.1135 94.1615 60.1838 94.1197 60.2607 94.0957C60.5368 94.0232 60.8225 93.9958 61.1072 94.0145C61.5909 94.0145 61.9167 94.0686 62.0847 94.1769C62.174 94.2443 62.2443 94.3342 62.2885 94.4374C62.3328 94.5408 62.3494 94.6539 62.3367 94.7656C62.3582 94.9476 62.3648 95.1308 62.3563 95.3138V102.42C62.3745 102.7 62.3473 102.981 62.2757 103.252C62.2526 103.329 62.2111 103.398 62.155 103.455C62.0987 103.512 62.0295 103.553 61.9535 103.577C61.3835 103.712 60.7901 103.712 60.2201 103.577C60.1396 103.556 60.0665 103.512 60.0094 103.451C59.9524 103.39 59.9135 103.314 59.8975 103.232C59.848 102.957 59.8277 102.678 59.8372 102.399L59.8368 95.2733Z" fill="white"/>
<path d="M63.3634 102.378V95.2522C63.3488 94.9649 63.3795 94.6772 63.4542 94.3995C63.4806 94.3229 63.5246 94.2535 63.5824 94.197C63.6404 94.1407 63.7107 94.0987 63.7876 94.0747C64.0637 94.0022 64.3495 93.9748 64.6342 93.9935C65.0908 93.9935 65.4066 94.0477 65.5814 94.1561C65.7557 94.2644 65.8436 94.474 65.8436 94.7852C65.9644 94.5147 66.2699 94.2981 66.7602 94.1356C67.3116 93.9643 67.8865 93.8821 68.4633 93.8921C68.9551 93.8753 69.4461 93.9439 69.9147 94.0951C70.0854 94.1408 70.235 94.245 70.3378 94.3895C70.4297 94.5676 70.4717 94.7677 70.4589 94.968C70.4622 95.3754 70.3541 95.7757 70.1464 96.1253C69.9381 96.4777 69.7131 96.6535 69.4713 96.6532C69.3031 96.6483 69.1381 96.6067 68.9876 96.5312C68.6447 96.3813 68.2726 96.3119 67.8992 96.3284C67.3832 96.3252 66.8856 96.5214 66.5087 96.8764C66.3211 97.0322 66.1697 97.2274 66.0654 97.4484C65.9609 97.6695 65.9058 97.9108 65.9039 98.1556V102.419C65.9105 102.633 65.9004 102.846 65.8737 103.058C65.8457 103.182 65.8017 103.302 65.7428 103.414V103.394C65.6475 103.501 65.5198 103.572 65.3798 103.597C65.1302 103.662 64.8725 103.689 64.615 103.679C64.1442 103.679 63.825 103.628 63.6575 103.526C63.5662 103.461 63.492 103.374 63.4412 103.273C63.3902 103.172 63.3642 103.061 63.3654 102.948L63.3634 102.378Z" fill="white"/>
</g>
<defs>
<clipPath id="clip0_150_5119">
<rect width="170" height="104" fill="white"/>
</clipPath>
</defs>
</svg>
