<svg width="53" height="34" viewBox="0 0 53 34" fill="none" xmlns="http://www.w3.org/2000/svg">
<rect width="40" height="34" transform="translate(12.7305)" fill="#EEEEEE"/>
<path d="M31.2305 10C34.2681 10 36.7305 12.4624 36.7305 15.5C36.7305 16.7483 36.3146 17.8995 35.6139 18.8226L39.7608 22.9697C40.0537 23.2626 40.0537 23.7374 39.7608 24.0303C39.4946 24.2966 39.0779 24.3208 38.7843 24.1029L38.7002 24.0303L34.5531 19.8834C33.63 20.5841 32.4788 21 31.2305 21C28.1929 21 25.7305 18.5376 25.7305 15.5C25.7305 12.4624 28.1929 10 31.2305 10ZM31.2305 11.5C29.0213 11.5 27.2305 13.2909 27.2305 15.5C27.2305 17.7091 29.0213 19.5 31.2305 19.5C33.4396 19.5 35.2305 17.7091 35.2305 15.5C35.2305 13.2909 33.4396 11.5 31.2305 11.5Z" fill="#7D8997"/>
</svg>
