<svg width="89" height="40" viewBox="0 0 89 40" fill="none" xmlns="http://www.w3.org/2000/svg">
<rect x="1.5" y="1" width="38" height="38" rx="19" fill="white"/>
<rect x="1.5" y="1" width="38" height="38" rx="19" stroke="#DCDFE3" stroke-width="2"/>
<path d="M23.221 26.9516C22.8611 27.2944 22.2915 27.2806 21.9487 26.9206L15.9471 20.6202C15.616 20.2725 15.616 19.7262 15.9471 19.3786L21.9487 13.0781C22.2915 12.7182 22.8611 12.7043 23.221 13.0472C23.581 13.39 23.5948 13.9597 23.252 14.3196L17.8417 19.9994L23.252 25.6792C23.5948 26.0391 23.581 26.6088 23.221 26.9516Z" fill="#2F353B"/>
<rect x="49.5" y="1" width="38" height="38" rx="19" fill="white"/>
<rect x="49.5" y="1" width="38" height="38" rx="19" stroke="#DCDFE3" stroke-width="2"/>
<path d="M65.7793 13.0481C66.1392 12.7053 66.7088 12.7192 67.0517 13.0791L73.0533 19.3796C73.3844 19.7272 73.3844 20.2735 73.0533 20.6212L67.0517 26.9216C66.7088 27.2815 66.1392 27.2954 65.7793 26.9526C65.4193 26.6098 65.4055 26.0401 65.7483 25.6801L71.1586 20.0004L65.7483 14.3206C65.4055 13.9607 65.4193 13.391 65.7793 13.0481Z" fill="#2F353B"/>
</svg>
