<svg width="152" height="32" viewBox="0 0 152 32" fill="none" xmlns="http://www.w3.org/2000/svg">
<path d="M17.3707 2.66675C18.8707 2.67075 19.632 2.67875 20.2893 2.69741L20.548 2.70675C20.8467 2.71741 21.1413 2.73075 21.4973 2.74675C22.916 2.81341 23.884 3.03741 24.7333 3.36675C25.6133 3.70541 26.3547 4.16408 27.096 4.90408C27.7742 5.57039 28.2989 6.37671 28.6333 7.26675C28.9627 8.11608 29.1867 9.08408 29.2533 10.5041C29.2693 10.8587 29.2827 11.1534 29.2933 11.4534L29.3013 11.7121C29.3213 12.3681 29.3293 13.1294 29.332 14.6294L29.3333 15.6241V17.3707C29.3366 18.3433 29.3263 19.3158 29.3027 20.2881L29.2947 20.5467C29.284 20.8467 29.2707 21.1414 29.2547 21.4961C29.188 22.9161 28.9613 23.8827 28.6333 24.7334C28.2989 25.6235 27.7742 26.4298 27.096 27.0961C26.4297 27.7743 25.6234 28.299 24.7333 28.6334C23.884 28.9627 22.916 29.1868 21.4973 29.2534L20.548 29.2934L20.2893 29.3014C19.632 29.3201 18.8707 29.3294 17.3707 29.3321L16.376 29.3334H14.6307C13.6577 29.3368 12.6847 29.3266 11.712 29.3027L11.4533 29.2948C11.1368 29.2828 10.8203 29.269 10.504 29.2534C9.08532 29.1868 8.11732 28.9627 7.26665 28.6334C6.37709 28.2988 5.57124 27.7742 4.90532 27.0961C4.22658 26.4299 3.70146 25.6236 3.36665 24.7334C3.03732 23.8841 2.81332 22.9161 2.74665 21.4961L2.70665 20.5467L2.69999 20.2881C2.67541 19.3158 2.66429 18.3433 2.66665 17.3707V14.6294C2.66296 13.6569 2.67274 12.6843 2.69599 11.7121L2.70532 11.4534C2.71599 11.1534 2.72932 10.8587 2.74532 10.5041C2.81199 9.08408 3.03599 8.11741 3.36532 7.26675C3.70091 6.37635 4.22695 5.57 4.90665 4.90408C5.57219 4.22615 6.37757 3.70151 7.26665 3.36675C8.11732 3.03741 9.08399 2.81341 10.504 2.74675C10.8587 2.73075 11.1547 2.71741 11.4533 2.70675L11.712 2.69875C12.6842 2.67506 13.6568 2.66484 14.6293 2.66808L17.3707 2.66675ZM16 9.33342C14.2319 9.33342 12.5362 10.0358 11.2859 11.286C10.0357 12.5363 9.33332 14.232 9.33332 16.0001C9.33332 17.7682 10.0357 19.4639 11.2859 20.7141C12.5362 21.9644 14.2319 22.6667 16 22.6667C17.7681 22.6667 19.4638 21.9644 20.714 20.7141C21.9643 19.4639 22.6667 17.7682 22.6667 16.0001C22.6667 14.232 21.9643 12.5363 20.714 11.286C19.4638 10.0358 17.7681 9.33342 16 9.33342ZM16 12.0001C16.5253 12 17.0454 12.1034 17.5308 12.3043C18.0161 12.5052 18.4571 12.7998 18.8286 13.1712C19.2001 13.5426 19.4948 13.9835 19.6959 14.4687C19.897 14.954 20.0006 15.4741 20.0007 15.9994C20.0007 16.5247 19.8974 17.0449 19.6964 17.5302C19.4955 18.0155 19.2009 18.4565 18.8296 18.828C18.4582 19.1995 18.0173 19.4942 17.532 19.6953C17.0467 19.8964 16.5266 20 16.0013 20.0001C14.9405 20.0001 13.923 19.5787 13.1729 18.8285C12.4227 18.0784 12.0013 17.0609 12.0013 16.0001C12.0013 14.9392 12.4227 13.9218 13.1729 13.1717C13.923 12.4215 14.9405 12.0001 16.0013 12.0001M23.0013 7.33342C22.5593 7.33342 22.1354 7.50901 21.8228 7.82157C21.5102 8.13413 21.3347 8.55805 21.3347 9.00008C21.3347 9.44211 21.5102 9.86603 21.8228 10.1786C22.1354 10.4912 22.5593 10.6667 23.0013 10.6667C23.4433 10.6667 23.8673 10.4912 24.1798 10.1786C24.4924 9.86603 24.668 9.44211 24.668 9.00008C24.668 8.55805 24.4924 8.13413 24.1798 7.82157C23.8673 7.50901 23.4433 7.33342 23.0013 7.33342Z" fill="#EAF3FA"/>
<path d="M69.3333 16.0001C69.3333 8.64008 63.36 2.66675 56 2.66675C48.64 2.66675 42.6666 8.64008 42.6666 16.0001C42.6666 22.4534 47.2533 27.8267 53.3333 29.0667V20.0001H50.6666V16.0001H53.3333V12.6667C53.3333 10.0934 55.4266 8.00008 58 8.00008H61.3333V12.0001H58.6666C57.9333 12.0001 57.3333 12.6001 57.3333 13.3334V16.0001H61.3333V20.0001H57.3333V29.2667C64.0666 28.6001 69.3333 22.9201 69.3333 16.0001Z" fill="#EAF3FA"/>
<path d="M105.333 4C106.041 4 106.719 4.28095 107.219 4.78105C107.719 5.28115 108 5.95942 108 6.66667V25.3333C108 26.0406 107.719 26.7189 107.219 27.219C106.719 27.719 106.041 28 105.333 28H86.6667C85.9594 28 85.2811 27.719 84.781 27.219C84.281 26.7189 84 26.0406 84 25.3333V6.66667C84 5.95942 84.281 5.28115 84.781 4.78105C85.2811 4.28095 85.9594 4 86.6667 4H105.333ZM104.667 24.6667V17.6C104.667 16.4472 104.209 15.3416 103.394 14.5264C102.578 13.7113 101.473 13.2533 100.32 13.2533C99.1867 13.2533 97.8667 13.9467 97.2267 14.9867V13.5067H93.5067V24.6667H97.2267V18.0933C97.2267 17.0667 98.0533 16.2267 99.08 16.2267C99.5751 16.2267 100.05 16.4233 100.4 16.7734C100.75 17.1235 100.947 17.5983 100.947 18.0933V24.6667H104.667ZM89.1733 11.4133C89.7674 11.4133 90.3372 11.1773 90.7573 10.7573C91.1773 10.3372 91.4133 9.76742 91.4133 9.17333C91.4133 7.93333 90.4133 6.92 89.1733 6.92C88.5757 6.92 88.0026 7.1574 87.58 7.57999C87.1574 8.00257 86.92 8.57571 86.92 9.17333C86.92 10.4133 87.9333 11.4133 89.1733 11.4133ZM91.0267 24.6667V13.5067H87.3333V24.6667H91.0267Z" fill="#EAF3FA"/>
<path d="M143.668 4H147.757L138.824 14.1667L149.333 28H141.104L134.66 19.6093L127.285 28H123.192L132.748 17.1267L122.667 4H131.104L136.931 11.6693L143.668 4ZM142.233 25.5627H144.5L129.872 6.30933H127.44L142.233 25.5627Z" fill="#EAF3FA"/>
</svg>
