<svg width="152" height="32" viewBox="0 0 152 32" fill="none" xmlns="http://www.w3.org/2000/svg">
<path d="M17.3707 2.6665C18.8707 2.6705 19.632 2.6785 20.2893 2.69717L20.548 2.7065C20.8467 2.71717 21.1413 2.7305 21.4973 2.7465C22.916 2.81317 23.884 3.03717 24.7333 3.3665C25.6133 3.70517 26.3547 4.16384 27.096 4.90384C27.7743 5.57015 28.2989 6.37647 28.6333 7.2665C28.9627 8.11584 29.1867 9.08384 29.2533 10.5038C29.2693 10.8585 29.2827 11.1532 29.2933 11.4532L29.3013 11.7118C29.3213 12.3678 29.3293 13.1292 29.332 14.6292L29.3333 15.6238V17.3705C29.3366 18.343 29.3264 19.3156 29.3027 20.2878L29.2947 20.5465C29.284 20.8465 29.2707 21.1412 29.2547 21.4958C29.188 22.9158 28.9613 23.8825 28.6333 24.7332C28.2989 25.6232 27.7743 26.4295 27.096 27.0958C26.4297 27.7741 25.6234 28.2987 24.7333 28.6332C23.884 28.9625 22.916 29.1865 21.4973 29.2532L20.548 29.2932L20.2893 29.3012C19.632 29.3198 18.8707 29.3292 17.3707 29.3318L16.376 29.3332H14.6307C13.6577 29.3366 12.6847 29.3264 11.712 29.3025L11.4533 29.2945C11.1368 29.2825 10.8204 29.2687 10.504 29.2532C9.08533 29.1865 8.11733 28.9625 7.26667 28.6332C6.37711 28.2986 5.57126 27.7739 4.90533 27.0958C4.22659 26.4297 3.70148 25.6233 3.36667 24.7332C3.03733 23.8838 2.81333 22.9158 2.74667 21.4958L2.70667 20.5465L2.7 20.2878C2.67542 19.3156 2.66431 18.3431 2.66667 17.3705V14.6292C2.66298 13.6566 2.67276 12.6841 2.696 11.7118L2.70533 11.4532C2.716 11.1532 2.72933 10.8585 2.74533 10.5038C2.812 9.08384 3.036 8.11717 3.36533 7.2665C3.70093 6.3761 4.22696 5.56975 4.90667 4.90384C5.57221 4.2259 6.37758 3.70127 7.26667 3.3665C8.11733 3.03717 9.084 2.81317 10.504 2.7465C10.8587 2.7305 11.1547 2.71717 11.4533 2.7065L11.712 2.6985C12.6843 2.67481 13.6568 2.66459 14.6293 2.66784L17.3707 2.6665ZM16 9.33317C14.2319 9.33317 12.5362 10.0355 11.286 11.2858C10.0357 12.536 9.33333 14.2317 9.33333 15.9998C9.33333 17.7679 10.0357 19.4636 11.286 20.7139C12.5362 21.9641 14.2319 22.6665 16 22.6665C17.7681 22.6665 19.4638 21.9641 20.714 20.7139C21.9643 19.4636 22.6667 17.7679 22.6667 15.9998C22.6667 14.2317 21.9643 12.536 20.714 11.2858C19.4638 10.0355 17.7681 9.33317 16 9.33317ZM16 11.9998C16.5253 11.9998 17.0454 12.1031 17.5308 12.3041C18.0161 12.505 18.4571 12.7996 18.8286 13.1709C19.2001 13.5423 19.4948 13.9832 19.6959 14.4685C19.897 14.9538 20.0006 15.4739 20.0007 15.9992C20.0008 16.5245 19.8974 17.0446 19.6964 17.53C19.4955 18.0153 19.2009 18.4563 18.8296 18.8278C18.4582 19.1993 18.0173 19.494 17.532 19.6951C17.0467 19.8962 16.5266 19.9998 16.0013 19.9998C14.9405 19.9998 13.9231 19.5784 13.1729 18.8283C12.4228 18.0781 12.0013 17.0607 12.0013 15.9998C12.0013 14.939 12.4228 13.9216 13.1729 13.1714C13.9231 12.4213 14.9405 11.9998 16.0013 11.9998M23.0013 7.33317C22.5593 7.33317 22.1354 7.50877 21.8228 7.82133C21.5103 8.13389 21.3347 8.55781 21.3347 8.99984C21.3347 9.44186 21.5103 9.86579 21.8228 10.1783C22.1354 10.4909 22.5593 10.6665 23.0013 10.6665C23.4434 10.6665 23.8673 10.4909 24.1798 10.1783C24.4924 9.86579 24.668 9.44186 24.668 8.99984C24.668 8.55781 24.4924 8.13389 24.1798 7.82133C23.8673 7.50877 23.4434 7.33317 23.0013 7.33317Z" fill="#EAF3FA"/>
<path d="M69.3333 15.9998C69.3333 8.63984 63.36 2.6665 56 2.6665C48.64 2.6665 42.6667 8.63984 42.6667 15.9998C42.6667 22.4532 47.2533 27.8265 53.3333 29.0665V19.9998H50.6667V15.9998H53.3333V12.6665C53.3333 10.0932 55.4267 7.99984 58 7.99984H61.3333V11.9998H58.6667C57.9333 11.9998 57.3333 12.5998 57.3333 13.3332V15.9998H61.3333V19.9998H57.3333V29.2665C64.0667 28.5998 69.3333 22.9198 69.3333 15.9998Z" fill="#EAF3FA"/>
<path d="M105.333 4C106.041 4 106.719 4.28095 107.219 4.78105C107.719 5.28115 108 5.95942 108 6.66667V25.3333C108 26.0406 107.719 26.7189 107.219 27.219C106.719 27.719 106.041 28 105.333 28H86.6667C85.9594 28 85.2811 27.719 84.781 27.219C84.281 26.7189 84 26.0406 84 25.3333V6.66667C84 5.95942 84.281 5.28115 84.781 4.78105C85.2811 4.28095 85.9594 4 86.6667 4H105.333ZM104.667 24.6667V17.6C104.667 16.4472 104.209 15.3416 103.394 14.5264C102.578 13.7113 101.473 13.2533 100.32 13.2533C99.1867 13.2533 97.8667 13.9467 97.2267 14.9867V13.5067H93.5067V24.6667H97.2267V18.0933C97.2267 17.0667 98.0533 16.2267 99.08 16.2267C99.5751 16.2267 100.05 16.4233 100.4 16.7734C100.75 17.1235 100.947 17.5983 100.947 18.0933V24.6667H104.667ZM89.1733 11.4133C89.7674 11.4133 90.3372 11.1773 90.7573 10.7573C91.1773 10.3372 91.4133 9.76742 91.4133 9.17333C91.4133 7.93333 90.4133 6.92 89.1733 6.92C88.5757 6.92 88.0026 7.1574 87.58 7.57999C87.1574 8.00257 86.92 8.57571 86.92 9.17333C86.92 10.4133 87.9333 11.4133 89.1733 11.4133ZM91.0267 24.6667V13.5067H87.3333V24.6667H91.0267Z" fill="#EAF3FA"/>
<path d="M143.668 4H147.757L138.824 14.1667L149.333 28H141.104L134.66 19.6093L127.285 28H123.192L132.748 17.1267L122.667 4H131.104L136.931 11.6693L143.668 4ZM142.233 25.5627H144.5L129.872 6.30933H127.44L142.233 25.5627Z" fill="#EAF3FA"/>
</svg>
