<svg width="152" height="32" viewBox="0 0 152 32" fill="none" xmlns="http://www.w3.org/2000/svg">
<path d="M17.3708 2.66699C18.8708 2.67099 19.6321 2.67899 20.2894 2.69766L20.5481 2.70699C20.8468 2.71766 21.1414 2.73099 21.4974 2.74699C22.9161 2.81366 23.8841 3.03766 24.7334 3.36699C25.6134 3.70566 26.3548 4.16433 27.0961 4.90433C27.7744 5.57064 28.299 6.37696 28.6334 7.26699C28.9628 8.11633 29.1868 9.08433 29.2534 10.5043C29.2694 10.859 29.2828 11.1537 29.2934 11.4537L29.3014 11.7123C29.3214 12.3683 29.3294 13.1297 29.3321 14.6297L29.3334 15.6243V17.371C29.3367 18.3435 29.3265 19.3161 29.3028 20.2883L29.2948 20.547C29.2841 20.847 29.2708 21.1417 29.2548 21.4963C29.1881 22.9163 28.9614 23.883 28.6334 24.7337C28.299 25.6237 27.7744 26.43 27.0961 27.0963C26.4298 27.7746 25.6235 28.2992 24.7334 28.6337C23.8841 28.963 22.9161 29.187 21.4974 29.2537L20.5481 29.2937L20.2894 29.3017C19.6321 29.3203 18.8708 29.3297 17.3708 29.3323L16.3761 29.3337H14.6308C13.6578 29.3371 12.6848 29.3269 11.7121 29.303L11.4534 29.295C11.1369 29.283 10.8205 29.2692 10.5041 29.2537C9.08544 29.187 8.11744 28.963 7.26677 28.6337C6.37721 28.2991 5.57136 27.7744 4.90544 27.0963C4.2267 26.4301 3.70159 25.6238 3.36677 24.7337C3.03744 23.8843 2.81344 22.9163 2.74677 21.4963L2.70677 20.547L2.70011 20.2883C2.67553 19.3161 2.66442 18.3435 2.66677 17.371V14.6297C2.66308 13.6571 2.67286 12.6846 2.69611 11.7123L2.70544 11.4537C2.71611 11.1537 2.72944 10.859 2.74544 10.5043C2.81211 9.08433 3.03611 8.11766 3.36544 7.26699C3.70103 6.37659 4.22707 5.57024 4.90677 4.90433C5.57231 4.22639 6.37769 3.70176 7.26677 3.36699C8.11744 3.03766 9.08411 2.81366 10.5041 2.74699C10.8588 2.73099 11.1548 2.71766 11.4534 2.70699L11.7121 2.69899C12.6844 2.6753 13.6569 2.66508 14.6294 2.66833L17.3708 2.66699ZM16.0001 9.33366C14.232 9.33366 12.5363 10.036 11.2861 11.2863C10.0358 12.5365 9.33344 14.2322 9.33344 16.0003C9.33344 17.7684 10.0358 19.4641 11.2861 20.7144C12.5363 21.9646 14.232 22.667 16.0001 22.667C17.7682 22.667 19.4639 21.9646 20.7142 20.7144C21.9644 19.4641 22.6668 17.7684 22.6668 16.0003C22.6668 14.2322 21.9644 12.5365 20.7142 11.2863C19.4639 10.036 17.7682 9.33366 16.0001 9.33366ZM16.0001 12.0003C16.5254 12.0002 17.0456 12.1036 17.5309 12.3046C18.0162 12.5055 18.4572 12.8001 18.8287 13.1714C19.2002 13.5428 19.4949 13.9837 19.696 14.469C19.8971 14.9542 20.0007 15.4744 20.0008 15.9997C20.0009 16.5249 19.8975 17.0451 19.6965 17.5304C19.4956 18.0158 19.201 18.4568 18.8297 18.8283C18.4583 19.1998 18.0174 19.4945 17.5321 19.6956C17.0469 19.8967 16.5267 20.0002 16.0014 20.0003C14.9406 20.0003 13.9232 19.5789 13.173 18.8288C12.4229 18.0786 12.0014 17.0612 12.0014 16.0003C12.0014 14.9395 12.4229 13.922 13.173 13.1719C13.9232 12.4218 14.9406 12.0003 16.0014 12.0003M23.0014 7.33366C22.5594 7.33366 22.1355 7.50925 21.8229 7.82181C21.5104 8.13438 21.3348 8.5583 21.3348 9.00033C21.3348 9.44235 21.5104 9.86628 21.8229 10.1788C22.1355 10.4914 22.5594 10.667 23.0014 10.667C23.4435 10.667 23.8674 10.4914 24.18 10.1788C24.4925 9.86628 24.6681 9.44235 24.6681 9.00033C24.6681 8.5583 24.4925 8.13438 24.18 7.82181C23.8674 7.50925 23.4435 7.33366 23.0014 7.33366Z" fill="#EAF3FA"/>
<path d="M69.3332 16.0003C69.3332 8.64033 63.3598 2.66699 55.9998 2.66699C48.6398 2.66699 42.6665 8.64033 42.6665 16.0003C42.6665 22.4537 47.2532 27.827 53.3332 29.067V20.0003H50.6665V16.0003H53.3332V12.667C53.3332 10.0937 55.4265 8.00033 57.9998 8.00033H61.3332V12.0003H58.6665C57.9332 12.0003 57.3332 12.6003 57.3332 13.3337V16.0003H61.3332V20.0003H57.3332V29.267C64.0665 28.6003 69.3332 22.9203 69.3332 16.0003Z" fill="#EAF3FA"/>
<path d="M105.333 4C106.041 4 106.719 4.28095 107.219 4.78105C107.719 5.28115 108 5.95942 108 6.66667V25.3333C108 26.0406 107.719 26.7189 107.219 27.219C106.719 27.719 106.041 28 105.333 28H86.6667C85.9594 28 85.2811 27.719 84.781 27.219C84.281 26.7189 84 26.0406 84 25.3333V6.66667C84 5.95942 84.281 5.28115 84.781 4.78105C85.2811 4.28095 85.9594 4 86.6667 4H105.333ZM104.667 24.6667V17.6C104.667 16.4472 104.209 15.3416 103.394 14.5264C102.578 13.7113 101.473 13.2533 100.32 13.2533C99.1867 13.2533 97.8667 13.9467 97.2267 14.9867V13.5067H93.5067V24.6667H97.2267V18.0933C97.2267 17.0667 98.0533 16.2267 99.08 16.2267C99.5751 16.2267 100.05 16.4233 100.4 16.7734C100.75 17.1235 100.947 17.5983 100.947 18.0933V24.6667H104.667ZM89.1733 11.4133C89.7674 11.4133 90.3372 11.1773 90.7573 10.7573C91.1773 10.3372 91.4133 9.76742 91.4133 9.17333C91.4133 7.93333 90.4133 6.92 89.1733 6.92C88.5757 6.92 88.0026 7.1574 87.58 7.57999C87.1574 8.00257 86.92 8.57571 86.92 9.17333C86.92 10.4133 87.9333 11.4133 89.1733 11.4133ZM91.0267 24.6667V13.5067H87.3333V24.6667H91.0267Z" fill="#EAF3FA"/>
<path d="M143.668 4H147.757L138.824 14.1667L149.333 28H141.104L134.66 19.6093L127.285 28H123.192L132.748 17.1267L122.667 4H131.104L136.931 11.6693L143.668 4ZM142.233 25.5627H144.5L129.872 6.30933H127.44L142.233 25.5627Z" fill="#EAF3FA"/>
</svg>
