<svg width="20" height="20" viewBox="0 0 20 20" fill="none" xmlns="http://www.w3.org/2000/svg">
<mask id="mask0_150_5158" style="mask-type:luminance" maskUnits="userSpaceOnUse" x="0" y="0" width="20" height="20">
<path d="M20 0H0V20H20V0Z" fill="white"/>
</mask>
<g mask="url(#mask0_150_5158)">
<path d="M2.5 6.66699C2.5 6.00395 2.76339 5.36806 3.23223 4.89922C3.70107 4.43038 4.33696 4.16699 5 4.16699H15C15.663 4.16699 16.2989 4.43038 16.7678 4.89922C17.2366 5.36806 17.5 6.00395 17.5 6.66699V13.3336C17.5 13.9967 17.2366 14.6325 16.7678 15.1014C16.2989 15.5702 15.663 15.8336 15 15.8336H5C4.33696 15.8336 3.70107 15.5702 3.23223 15.1014C2.76339 14.6325 2.5 13.9967 2.5 13.3336V6.66699Z" stroke="white" stroke-width="1.67" stroke-linecap="round" stroke-linejoin="round"/>
<path d="M2.5 8.33301H17.5" stroke="white" stroke-width="1.67" stroke-linecap="round" stroke-linejoin="round"/>
<path d="M5.8335 12.5H5.84183" stroke="white" stroke-width="1.67" stroke-linecap="round" stroke-linejoin="round"/>
<path d="M9.1665 12.5H10.8332" stroke="white" stroke-width="1.67" stroke-linecap="round" stroke-linejoin="round"/>
</g>
</svg>
