<svg width="29" height="29" viewBox="0 0 29 29" fill="none" xmlns="http://www.w3.org/2000/svg">
<g clip-path="url(#clip0_150_5253)">
<mask id="mask0_150_5253" style="mask-type:luminance" maskUnits="userSpaceOnUse" x="0" y="0" width="29" height="29">
<path d="M29 0H0V29H29V0Z" fill="white"/>
</mask>
<g mask="url(#mask0_150_5253)">
<path d="M24.1895 20.0804C24.3179 19.8581 24.3214 19.5996 24.2259 19.3811L24.2329 19.3771L22.6718 16.6732L25.3676 15.1167L25.3647 15.1113C25.4628 15.0397 25.5427 14.9459 25.5978 14.8377C25.6529 14.7294 25.6817 14.6097 25.6819 14.4882C25.6817 14.3665 25.6528 14.2467 25.5975 14.1383C25.5422 14.0299 25.4622 13.9362 25.3639 13.8645L25.3677 13.858L22.6633 12.2966L24.2202 9.60002L24.2146 9.59683C24.2638 9.48572 24.2861 9.36459 24.2797 9.24326C24.2733 9.12193 24.2384 9.00381 24.1778 8.89848C24.1169 8.79312 24.0318 8.70367 23.9297 8.63744C23.8276 8.5712 23.7112 8.53005 23.5902 8.51735V8.50969L20.4154 8.50972L20.4155 5.46454L20.4091 5.46455C20.3961 5.34375 20.3548 5.22773 20.2886 5.12586C20.2224 5.02399 20.1331 4.93914 20.028 4.87819C19.8058 4.74986 19.5471 4.74616 19.3288 4.8418L19.3248 4.8348L16.644 6.38255L15.1053 3.71741L15.0998 3.72059C15.0282 3.62246 14.9344 3.54259 14.8261 3.48747C14.7179 3.43235 14.5981 3.40352 14.4766 3.40332C14.355 3.40348 14.2351 3.43235 14.1266 3.48759C14.0182 3.54283 13.9244 3.62288 13.8528 3.72122L13.846 3.7173L12.2982 6.39805L9.63311 4.85931L9.63006 4.86459C9.51895 4.81544 9.39782 4.79316 9.27649 4.79956C9.15516 4.80595 9.03704 4.84085 8.93171 4.9014C8.82652 4.9624 8.73719 5.04734 8.67097 5.14933C8.60476 5.25132 8.56353 5.36749 8.55062 5.4884L8.54281 5.48858L8.54272 8.53143L5.39696 8.53152L5.39697 8.53789C5.27617 8.55091 5.16014 8.5922 5.05827 8.6584C4.95641 8.72461 4.87156 8.81387 4.81061 8.91897C4.68228 9.14124 4.67858 9.39996 4.77422 9.61826L4.76722 9.62225L6.32839 12.3261L3.63256 13.8827L3.63563 13.8878C3.5375 13.9594 3.45764 14.0532 3.40252 14.1614C3.34739 14.2697 3.31856 14.3895 3.31836 14.511C3.3186 14.6326 3.34753 14.7524 3.40279 14.8608C3.45805 14.9692 3.53809 15.063 3.63641 15.1346L3.63249 15.1414L6.3366 16.7026L4.77988 19.3988L4.7854 19.4021C4.69019 19.6203 4.69418 19.8785 4.82222 20.1004C4.88324 20.2058 4.96827 20.2952 5.07039 20.3614C5.1725 20.4276 5.28882 20.4688 5.40986 20.4816L5.40979 20.4892H8.58465L8.58454 23.5344H8.59091C8.60394 23.6552 8.64522 23.7712 8.71143 23.8731C8.77763 23.9749 8.8669 24.0598 8.972 24.1207C9.19426 24.2491 9.45298 24.2528 9.67113 24.1574L9.67503 24.1639L12.3557 22.6161L13.8947 25.2815L13.9002 25.2782C13.9718 25.3764 14.0656 25.4562 14.1739 25.5114C14.2821 25.5665 14.4019 25.5954 14.5234 25.5956C14.645 25.5954 14.7649 25.5665 14.8734 25.5112C14.9818 25.456 15.0756 25.3761 15.1472 25.2777L15.154 25.2816L16.7016 22.6011L19.367 24.1399L19.3701 24.1347C19.4812 24.1839 19.6023 24.2062 19.7237 24.1998C19.845 24.1934 19.9631 24.1585 20.0684 24.0979C20.1736 24.0368 20.263 23.9518 20.3292 23.8498C20.3955 23.7477 20.4367 23.6315 20.4497 23.5107H20.4573L20.4574 20.4678L23.6032 20.4678V20.4613C23.724 20.4485 23.84 20.4072 23.9419 20.341C24.0438 20.2747 24.1286 20.1855 24.1895 20.0804ZM11.2751 16.4398L9.43306 13.9198L9.43317 16.4396H8.61074L8.61046 12.5761L9.45616 12.5759L11.2461 15.003L11.246 12.5759L12.0687 12.576L12.0684 16.4391L11.2751 16.4398ZM12.8329 16.4398L12.833 12.5763L15.567 12.5766L15.5669 13.3005L13.6554 13.3003L13.6553 14.1112L15.5261 14.1114L15.5263 14.8348L13.6552 14.8352L13.6553 15.7156L15.5668 15.7158V16.4398L12.8329 16.4398ZM19.1637 16.44L18.486 13.787L17.8141 16.4396L16.9397 16.4398L15.8332 12.5766L16.7541 12.5765L17.4321 15.3682L18.1676 12.5765L18.8104 12.5766L19.5403 15.3685L20.2179 12.5765H21.1388L20.0383 16.4403L19.1637 16.44Z" fill="#FBA20A"/>
</g>
</g>
<defs>
<clipPath id="clip0_150_5253">
<rect width="29" height="29" fill="white"/>
</clipPath>
</defs>
</svg>
