<svg width="20" height="20" viewBox="0 0 20 20" fill="none" xmlns="http://www.w3.org/2000/svg">
<path d="M17.05 2.91C15.18 1.03 12.69 0 10.04 0C4.57998 0 0.129988 4.45 0.129988 9.91C0.129988 11.66 0.589988 13.36 1.44998 14.86L0.0499878 20L5.29998 18.62C6.74998 19.41 8.37998 19.83 10.04 19.83C15.5 19.83 19.95 15.38 19.95 9.92C19.95 7.27 18.92 4.78 17.05 2.91ZM10.04 18.15C8.55998 18.15 7.10998 17.75 5.83998 17L5.53998 16.82L2.41998 17.64L3.24998 14.6L3.04998 14.29C2.22998 12.98 1.78998 11.46 1.78998 9.91C1.78998 5.37 5.48998 1.67 10.03 1.67C12.23 1.67 14.3 2.53 15.85 4.09C17.41 5.65 18.26 7.72 18.26 9.92C18.28 14.46 14.58 18.15 10.04 18.15ZM14.56 11.99C14.31 11.87 13.09 11.27 12.87 11.18C12.64 11.1 12.48 11.06 12.31 11.3C12.14 11.55 11.67 12.11 11.53 12.27C11.39 12.44 11.24 12.46 10.99 12.33C10.74 12.21 9.93998 11.94 8.99998 11.1C8.25998 10.44 7.76998 9.63 7.61998 9.38C7.47998 9.13 7.59998 9 7.72998 8.87C7.83998 8.76 7.97999 8.58 8.09999 8.44C8.21999 8.3 8.26999 8.19 8.34999 8.03C8.42999 7.86 8.38999 7.72 8.32998 7.6C8.26998 7.48 7.76998 6.26 7.56998 5.76C7.36999 5.28 7.15999 5.34 7.00998 5.33C6.85998 5.33 6.69999 5.33 6.52998 5.33C6.35998 5.33 6.09998 5.39 5.86998 5.64C5.64998 5.89 5.00998 6.49 5.00998 7.71C5.00998 8.93 5.89998 10.11 6.01998 10.27C6.13998 10.44 7.76998 12.94 10.25 14.01C10.84 14.27 11.3 14.42 11.66 14.53C12.25 14.72 12.79 14.69 13.22 14.63C13.7 14.56 14.69 14.03 14.89 13.45C15.1 12.87 15.1 12.38 15.03 12.27C14.96 12.16 14.81 12.11 14.56 11.99Z" fill="#EAF3FA"/>
</svg>
